<svg width="742" height="811" viewBox="0 0 742 811" fill="none" xmlns="http://www.w3.org/2000/svg">
<path d="M6.59507 292.5V265.5L20.5951 271V214.5H58.5954V273.5H101.095L118.595 277.5C138.72 267.607 149.999 268.556 170.095 282.5H177.095V321.5H170.095C151.208 337.429 139.947 338.507 118.595 325.5L101.095 329H58.5954V390.5H20.5951V333L6.59507 339V312C-0.814506 305.231 -0.915371 300.96 6.59507 292.5Z" fill="#444444" stroke="white" stroke-width="2"/>
<path d="M11.5955 268V336.5M20.5955 272V280.5M20.5955 332V329.5M21.5955 232.5H57.5955M21.5955 249H57.5955M21.5955 264.5H57.5955M57.5955 275.5V280.5M20.5955 329.5V280.5M20.5955 329.5H41.5955M20.5955 280.5H41.5955M57.5955 280.5V329.5H41.5955M57.5955 280.5H41.5955M41.5955 280.5V329.5M21.5955 340.5H57.5955M57.5955 356.5H21.5955M21.5955 372H57.5955M107.095 275.5V328.5M118.095 278V325M170.595 321V283.5" stroke="white"/>
<path d="M462.095 6.59507H489.095L483.595 20.5951H540.095V58.5954H481.095V101.095L477.095 118.595C486.989 138.72 486.04 149.999 472.095 170.095V177.095H433.095V170.095C417.167 151.208 416.089 139.947 429.095 118.595L425.595 101.095V58.5954H364.095V20.5951H421.595L415.595 6.59507H442.595C449.364 -0.814506 453.636 -0.915371 462.095 6.59507Z" fill="#444444" stroke="white" stroke-width="2"/>
<path d="M486.595 11.5954H418.095M482.595 20.5954H474.095M422.595 20.5954H425.095M522.095 21.5954V57.5954M505.595 21.5954V57.5954M490.095 21.5954V57.5954M479.095 57.5954H474.095M425.095 20.5954H474.095M425.095 20.5954V41.5954M474.095 20.5954V41.5954M474.095 57.5954H425.095V41.5954M474.095 57.5954V41.5954M474.095 41.5954H425.095M414.095 21.5954V57.5954M398.095 57.5954V21.5954M382.595 21.5954V57.5954M479.095 107.095H426.095M476.595 118.095H429.595M433.595 170.595H471.095" stroke="white"/>
<path d="M442.095 803.5H415.095L420.595 789.5H364.095V751.5H423.095V709L427.095 691.5C417.202 671.375 418.151 660.097 432.095 640V633H471.095V640C487.024 658.888 488.102 670.148 475.095 691.5L478.595 709V751.5H540.095V789.5H482.595L488.595 803.5H461.595C454.826 810.91 450.555 811.011 442.095 803.5Z" fill="#444444" stroke="white" stroke-width="2"/>
<path d="M417.595 798.5H486.095M421.595 789.5H430.095M481.595 789.5H479.095M382.095 788.5V752.5M398.595 788.5V752.5M414.095 788.5V752.5M425.095 752.5H430.095M479.095 789.5H430.095M479.095 789.5V768.5M430.095 789.5V768.5M430.095 752.5H479.095V768.5M430.095 752.5V768.5M430.095 768.5H479.095M490.095 788.5V752.5M506.095 752.5V788.5M521.595 788.5V752.5M425.095 703H478.095M427.595 692H474.595M470.595 639.5H433.095" stroke="white"/>
<path d="M177.095 322V277H170.095C164.965 266.651 164.363 260.849 170.095 250.5H177.095L186.595 246V253.5H243.595H302.595L328.095 267.5H360.595L355.595 262H383.095V267.5H412.095V273L431.595 283V320.5L412.095 330.5V335.5H338.095L342.095 342.5H322.095L325.095 335.5L302.595 350V355.5H287.595L278.595 350H243.595H182.095V330.5L177.095 322Z" fill="#444444"/>
<path d="M302.595 253.5L328.095 267.5H360.595L355.595 262H383.095V267.5H412.095V273L431.595 283V320.5L412.095 330.5V335.5H338.095L342.095 342.5H322.095L325.095 335.5L302.595 350M302.595 253.5H243.595M302.595 253.5V350M278.595 350L287.595 355.5H302.595V350M278.595 350H243.595M278.595 350H302.595M243.595 350H182.095V330.5L177.095 322V277H170.095C164.965 266.651 164.363 260.849 170.095 250.5H177.095L186.595 246V253.5H243.595M243.595 350V253.5" stroke="white" stroke-width="3"/>
<path d="M204.095 261.5H193.595V266H204.095V261.5Z" fill="black"/>
<path d="M213.095 305.5V314H203.345H193.595V305.5H203.345H213.095Z" fill="black"/>
<path d="M365.095 341L361.095 336H377.095L376.095 341H365.095Z" fill="black"/>
<path d="M328.595 330L319.595 329.5L321.345 324.056L323.095 318.611L324.417 314.5L326.095 309.278L327.59 304.627L328.595 301.5L345.095 302.7L362.095 303.936V300C367.268 295.353 369.994 295.391 374.595 300V304.845L390.595 306.009L411.095 307.5V311.5V315.5V321V325.5V330V330.5V336H390.095H384.595L368.595 334.286L363.095 333.696L341.595 331.393L328.595 330Z" fill="black"/>
<path d="M258.095 283.5C248.614 283.618 248.056 297.62 258.095 297.5C268.135 297.38 267.577 283.382 258.095 283.5Z" fill="black"/>
<path d="M178.595 276V268.5M178.595 251V256.5M178.595 256.5H167.595M178.595 256.5V268.5M178.595 268.5H167.595M186.095 349V254.5M203.345 305.5H193.595V314H203.345M203.345 305.5H213.095V314H203.345M203.345 305.5V314M244.595 266H300.595M244.595 270.5H300.595M244.595 301.5H300.595M244.595 306.5H300.595M244.595 334.5H300.595M244.595 339H300.595M311.595 343.5V259.5M319.595 264V329.5M319.595 338V329.5M328.595 268.5V301.5M328.595 301.5L345.095 302.7M328.595 301.5L327.59 304.627M403.595 268.5V306.5M411.095 273V307.5M382.595 268.5H362.095M328.595 330V334.5H338.095M328.595 330L319.595 329.5M328.595 330L341.595 331.393M357.595 303V294L360.095 291.5H377.095L379.595 294V305M319.595 329.5L321.345 324.056M411.095 307.5L390.595 306.009M411.095 307.5V311.5M341.595 331.393L345.095 302.7M341.595 331.393L363.095 333.696M345.095 302.7L362.095 303.936M363.095 333.696L368.595 334.286M363.095 333.696L363.616 328.098M365.835 304.208L371.595 304.627M365.835 304.208L365.529 307.5M365.835 304.208L365.095 304.155M368.595 334.286L384.595 336H390.095M368.595 334.286L369.192 328.393M371.595 304.627L371.235 308.195M371.595 304.627L372.595 304.7M390.095 336H411.095V330.5M390.095 336L390.595 306.009M390.595 306.009L374.595 304.845M327.59 304.627L365.529 307.5M327.59 304.627L326.095 309.278M365.529 307.5L365.095 312.171M371.235 308.195L411.095 311.5M371.235 308.195L370.749 313M411.095 311.5V315.5M326.095 309.278L365.095 312.171M326.095 309.278L324.417 314.5M365.095 312.171L364.554 318M324.417 314.5L364.554 318M324.417 314.5L323.095 318.611M364.554 318L364.136 322.5M323.095 318.611L364.136 322.5M323.095 318.611L321.345 324.056M364.136 322.5L363.616 328.098M321.345 324.056L363.616 328.098M370.749 313L411.095 315.5M370.749 313L370.243 318M411.095 315.5V321M370.243 318L411.095 321M370.243 318L369.788 322.5M411.095 321V325.5M369.788 322.5L411.095 325.5M369.788 322.5L369.192 328.393M411.095 325.5V330V330.5M369.192 328.393L411.095 330.5M362.095 303.936V300C367.268 295.353 369.994 295.391 374.595 300V304.845M362.095 303.936L365.095 304.155M374.595 304.845L372.595 304.7M365.095 304.155C367.095 299 371.595 300 372.595 304.7M193.595 261.5H204.095V266H193.595V261.5ZM361.095 336L365.095 341H376.095L377.095 336H361.095ZM258.095 283.5C248.614 283.618 248.056 297.62 258.095 297.5C268.135 297.38 267.577 283.382 258.095 283.5Z" stroke="white"/>
<path d="M431.595 283L434.595 279.5V273V266.5C426.515 260.51 423.92 255.218 422.595 242.5C415.138 231.531 415.201 224.652 422.595 211C421.148 195.727 423.979 188.465 434.595 177.5H470.595C480.494 186.601 483.126 194.112 483.595 211C490.776 223.301 490.737 230.199 483.595 242.5C483.222 253.831 480.68 259.212 470.595 266.5V273V279.5L474.595 283H483.595V319.5H474.595L470.595 324.5V330V349.5L500.595 379H406.595L434.595 349.5V330V324.5L431.595 319.5V283Z" fill="#444444"/>
<path d="M434.595 273V279.5L431.595 283V319.5L434.595 324.5V330M434.595 273V266.5C426.515 260.51 423.92 255.218 422.595 242.5C415.138 231.531 415.201 224.652 422.595 211C421.148 195.727 423.979 188.465 434.595 177.5H470.595C480.494 186.601 483.126 194.112 483.595 211C490.776 223.301 490.737 230.199 483.595 242.5C483.222 253.831 480.68 259.212 470.595 266.5V273M434.595 273H470.595M470.595 273V279.5L474.595 283H483.595V319.5H474.595L470.595 324.5V330M434.595 330V349.5L406.595 379H500.595L470.595 349.5V330M434.595 330H470.595" stroke="white" stroke-width="3"/>
<path d="M470.095 235C464.095 236.379 464.595 224.368 470.095 223.5C475.595 222.632 476.095 233.621 470.095 235Z" fill="black"/>
<path d="M470.095 239.5C458.095 242.258 458.595 220.274 470.095 218C481.595 215.726 482.095 236.742 470.095 239.5Z" fill="black"/>
<path d="M453.095 317.5C434.095 317.5 432.595 286.5 452.595 286.5C472.595 286.5 472.095 317.5 453.095 317.5Z" fill="black"/>
<path d="M474.595 284.5V318.5M434.595 322.5H470.595M434.595 350.5H445.095M470.595 350.5H461.595M434.595 336.5C438.474 336.5 441.963 336.5 445.095 336.5M470.595 336.5C470.415 336.5 468.098 336.5 461.595 336.5M445.095 336.5V350.5M445.095 336.5C452.367 336.5 457.723 336.5 461.595 336.5M445.095 350.5H461.595M445.095 350.5L442.295 356M461.595 336.5V350.5M461.595 350.5L475.095 378M431.095 378L442.295 356M442.295 356H464.095M423.095 242.5H482.595M423.095 210.5H482.595M423.095 195.5H482.595M436.095 266H470.095M452.595 286.5C432.595 286.5 434.095 317.5 453.095 317.5C472.095 317.5 472.595 286.5 452.595 286.5ZM470.095 239.5C458.095 242.258 458.595 220.274 470.095 218C481.595 215.726 482.095 236.742 470.095 239.5ZM470.095 235C464.095 236.379 464.595 224.368 470.095 223.5C475.595 222.632 476.095 233.621 470.095 235Z" stroke="white"/>
<path d="M471.095 633H434.095L424.595 622.5L419.095 599L431.095 590L434.095 585.5L433.032 583.5L412.595 593V570H417.595V562H396.095V531.5H407.595L414.595 513.5V498.5H419.095V492.5L410.595 488V393L405.595 388.5V378.5H501.095V400H636.095V482.5H502.595V440H494.095V447L498.595 449.5V472.5L494.095 476V490H486.595V541H493.095H503.595V557H487.595V562L471.095 585.5L474.095 590C474.095 590 516.775 590.001 530.595 590C544.415 589.999 542.843 624.999 530.595 625C518.348 625.001 515.095 625 515.095 625V644H493.095V626H474.095L471.095 629V633Z" fill="#444444"/>
<path d="M501.095 421.5V400M501.095 400V378.5H405.595V388.5L410.595 393V488L419.095 492.5V498.5H414.595V513.5L407.595 531.5H396.095V562H417.595M501.095 400H636.095V482.5H502.595V440H494.095V447L498.595 449.5V472.5L494.095 476V490H486.595V541H493.095H503.595V557H487.595V562L471.095 585.5L474.095 590C474.095 590 516.775 590.001 530.595 590C544.415 589.999 542.843 624.999 530.595 625C518.348 625.001 515.095 625 515.095 625V644H493.095V626H474.095L471.095 629V633H434.095L424.595 622.5L419.095 599L431.095 590L434.095 585.5L433.032 583.5M417.595 562H421.595L433.032 583.5M417.595 562V570H412.595V593L433.032 583.5" stroke="white" stroke-width="3"/>
<path d="M442.595 513V504L445.095 501.5H462.095L464.595 504V515L459.595 514.545V514.845L474.095 515.9L475.595 516.009L496.095 517.5V521.5V525.5V531V535.5V540V540.5V547L487.095 546.425L473.595 545.563L453.595 544.286C453.095 548 447.095 548 448.095 543.696L426.595 541.393L404.595 539.5L406.345 534.056L408.095 528.611L409.417 524.5L411.095 519.278L412.59 514.627L413.595 511.5L430.095 512.7L447.095 513.936V513.409L442.595 513Z" fill="black"/>
<path d="M501.095 599.5H508.595V603H515.595V611.5H508.595V613H501.095V599.5Z" fill="black"/>
<path d="M590.595 400.5V483H595.595V400.5H590.595Z" fill="black"/>
<path d="M547.095 400.5V483H552.095V400.5H547.095Z" fill="black"/>
<path d="M460.095 596V606H448.595V596H460.095Z" fill="black"/>
<path d="M443.595 626C432.095 626 432.095 617 443.595 617C455.095 617 455.095 626 443.595 626Z" fill="black"/>
<path d="M405.595 386.5H500.595M411.095 487.5H427.595V475M410.095 431.5V422L405.595 425V431.5M410.095 431.5V441L405.595 438V431.5M410.095 431.5H405.595M410.095 402.5L405.595 405.5V417.5L410.095 419.5V402.5ZM410.095 402.5L405.595 399.5V390M410.095 402.5V393.5L405.595 390M405.595 390H408.095H427.595V421.5M427.595 421.5H479.095M427.595 421.5V475M479.095 421.5V390H494.595V427.5M479.095 421.5L479.595 475M499.595 439.5H494.595V435M499.595 439.5H515.095V421.5H510.095M499.595 439.5V435M499.595 421.5V427.5M499.595 421.5V400.5H504.845M499.595 421.5H504.845M494.595 427.5H499.595M494.595 427.5V435M499.595 427.5V435M499.595 435H494.595M510.095 421.5V400.5H504.845M510.095 421.5H504.845M504.845 400.5V421.5M430.095 512.7L413.595 511.5L412.59 514.627M430.095 512.7L429.702 515.923M430.095 512.7L447.095 513.936M426.595 541.393L427.247 536.055M426.595 541.393L448.095 543.696M426.595 541.393L404.595 539.5L406.345 534.056M427.247 536.055L427.925 530.49M427.247 536.055L406.345 534.056M427.247 536.055L448.616 538.098M427.925 530.49L428.454 526.16M427.925 530.49L408.095 528.611M427.925 530.49L449.136 532.5M428.454 526.16L429.13 520.616M428.454 526.16L409.417 524.5M428.454 526.16L449.554 528M429.13 520.616L429.702 515.923M429.13 520.616L411.095 519.278M429.13 520.616L450.095 522.171M429.702 515.923L412.59 514.627M429.702 515.923L450.529 517.5M448.095 543.696C447.095 548 453.095 548 453.595 544.286M448.095 543.696L448.616 538.098M448.095 543.696L453.595 544.286M453.595 544.286L454.192 538.393M453.595 544.286L473.595 545.563M450.835 514.208L456.595 514.627M450.835 514.208L450.529 517.5M450.835 514.208L450.095 514.155M456.595 514.627L456.235 518.195M456.595 514.627L457.595 514.7M412.59 514.627L411.095 519.278M450.529 517.5L450.095 522.171M456.235 518.195L496.095 521.5M456.235 518.195L455.749 523M496.095 521.5V517.5L475.595 516.009L474.095 515.9M496.095 521.5V525.5M411.095 519.278L409.417 524.5M450.095 522.171L449.554 528M409.417 524.5L408.095 528.611M449.554 528L449.136 532.5M408.095 528.611L406.345 534.056M449.136 532.5L448.616 538.098M455.749 523L496.095 525.5M455.749 523L455.243 528M496.095 525.5V531M455.243 528L496.095 531M455.243 528L454.788 532.5M496.095 531V535.5M454.788 532.5L496.095 535.5M454.788 532.5L454.192 538.393M496.095 535.5V540V540.5M454.192 538.393L496.095 540.5M496.095 540.5V547L487.095 546.425M447.095 513.936V513.409M447.095 513.936L450.095 514.155M447.095 513.409V510C452.268 505.353 454.994 505.391 459.595 510V514.545M447.095 513.409L450.286 513.699M447.095 513.409L442.595 513V504L445.095 501.5H462.095L464.595 504V515L459.595 514.545M459.595 514.845V514.545M459.595 514.845L457.595 514.7M459.595 514.845L474.095 515.9M459.595 514.545L457.514 514.356M450.095 514.155C450.157 513.997 450.22 513.845 450.286 513.699M457.595 514.7C457.571 514.583 457.544 514.469 457.514 514.356M450.286 513.699C452.314 509.183 456.409 510.092 457.514 514.356M450.286 513.699L457.514 514.356M425.595 562V544.286H396.595V562H425.595ZM425.595 562H448.595M487.095 546.425V562H465.595M487.095 546.425L473.595 545.563M473.595 545.563V550.5H431.595V543M465.595 562V577.5H448.595M465.595 562H448.595M448.595 577.5V570.5M448.595 577.5V586H439.595M448.595 562V570.5M448.595 570.5H439.595V586M439.595 586H432.095V628.5M432.095 630.5V628.5M432.095 628.5H471.095M482.095 625V590M492.095 590V625M501.095 613V599.5H508.595V603M501.095 613H508.595M501.095 613H493.595V625M508.595 613V611.5M508.595 613H515.595V624M508.595 603H515.595V611.5H508.595M508.595 603V611.5M518.595 624V590M525.595 590V624M431.595 512V487.5H474.095V515.9M427.595 475H479.595M479.595 475V486.5H494.095M448.595 606V596H460.095V606H448.595ZM547.095 483V400.5H552.095V483H547.095ZM590.595 483V400.5H595.595V483H590.595ZM443.595 617C432.095 617 432.095 626 443.595 626C455.095 626 455.095 617 443.595 617Z" stroke="white"/>
<path d="M483.595 319.5V283H502.595L531.095 258.5V252H562.095L573.095 258.5L576.595 252H590.595V256H639.595L642.595 260L647.595 254H723.595L729.595 262C742.804 262.007 743.056 280.007 729.595 280L737.595 284.5V321.5L722.095 330.5V349H647.595L642.595 340L639.595 346H627.595L626.095 349H599.095V343H590.595V349H576.595L573.095 343L569.095 349H531.095L502.595 319.5H483.595Z" fill="#444444"/>
<path d="M531.095 349L502.595 319.5H483.595V283H502.595L531.095 258.5M531.095 349H569.095L573.095 343L576.595 349H590.595V343H599.095V349H626.095L627.595 346H639.595L642.595 340L647.595 349H722.095V330.5L737.595 321.5V284.5L729.595 280C743.056 280.007 742.804 262.007 729.595 262L723.595 254H647.595L642.595 260L639.595 256H590.595V252H576.595L573.095 258.5L562.095 252H531.095V258.5M531.095 349V258.5" stroke="white" stroke-width="3"/>
<path d="M658.97 276.5L674.283 267.75L689.595 259L700.095 276.868L703.845 283.25L713.095 298.991L718.095 307.5L713.095 310.417L705.238 315L702.845 316.396L692.381 322.5L687.595 325.292L683.095 327.917L682.095 328.5L668.595 336.375L652.095 346L637.595 321.5L626.095 302.069L623.095 297L626.095 295.286L640.095 287.286L651.97 280.5L654.095 279.286L657.595 277.286L658.97 276.5Z" fill="black"/>
<path d="M654.095 279.286L668.095 303.893M654.095 279.286L651.97 280.5L640.095 287.286M654.095 279.286L657.595 277.286L658.97 276.5M682.095 328.5L668.595 336.375M682.095 328.5L668.095 303.893M682.095 328.5L683.095 327.917L687.595 325.292M687.595 325.292L673.283 300.896M687.595 325.292L692.381 322.5L702.845 316.396M658.97 276.5L674.283 267.75M658.97 276.5L673.283 300.896M674.283 267.75L689.595 259L700.095 276.868L703.845 283.25M674.283 267.75L702.845 316.396M702.845 316.396L705.238 315L713.095 310.417L718.095 307.5L713.095 298.991L703.845 283.25M668.595 336.375L652.095 346L637.595 321.5M668.595 336.375L640.095 287.286M640.095 287.286L626.095 295.286L623.095 297L626.095 302.069L637.595 321.5M637.595 321.5L668.095 303.893M673.283 300.896L703.845 283.25" stroke="white"/>
<path d="M489.595 292.5V284H503.095V292.5M489.595 292.5C501.595 292.5 503.595 292.5 503.095 292.5M489.595 292.5V309.5M503.095 292.5V309.5M503.095 292.5L509.095 289.821M503.095 309.5V319H489.595V309.5M503.095 309.5H489.595M503.095 309.5L509.095 312.5M531.095 280L509.095 289.821M531.095 323.5L509.095 312.5M509.095 312.5V289.821M541.095 348L544.095 343.5M544.095 343.5H541.095V326.5H565.595M544.095 343.5H557.095M557.095 343.5L560.095 348M557.095 343.5H583.095M580.095 348L583.095 343.5M583.095 343.5L586.095 348M583.095 343.5H616.095M616.095 343.5H636.595V326.5H626.595M616.095 343.5V348M537.595 253V348M636.595 276H626.595M636.595 276H641.095V270.5L639.095 268.5M636.595 276V268.5M565.595 326.5V276M565.595 326.5H573.595M565.595 276H541.095V258.5H636.595V259.5M565.595 276H573.595M573.595 276V326.5M573.595 276H626.595M573.595 326.5H626.595M626.595 326.5V301.569M626.595 294.786V280M626.595 276V280M626.595 280H652.47M639.095 268.5H636.595M639.095 268.5C643.664 267.961 642.157 258.965 639.095 259.5C636.034 260.035 636.595 259.5 636.595 259.5M636.595 268.5V259.5M658.095 276.786L647.095 276.5M647.095 276.5C643.043 272.009 642.758 269.491 647.095 265M647.095 276.5V265M647.095 255.5V265M700.595 276.368H708.595M708.595 276.368V279H713.595M708.595 276.368V266M708.595 266V254H722.095V266M708.595 266H722.095M722.095 266V279H713.595M683.595 327.417H696.595H709.595M709.595 327.417V324.792H713.595M709.595 327.417V337.708M709.595 337.708V348H721.095V337.708M709.595 337.708H721.095M721.095 337.708V324.792H713.595M713.595 324.792V309.917L705.738 314.5V322H692.881M713.595 298.491V279M729.595 262V280M557.095 293.5V310.5L568.595 306.5V297L557.095 293.5Z" stroke="white"/>
</svg>
